<svg width="56" height="56" viewBox="0 0 56 56" fill="none" xmlns="http://www.w3.org/2000/svg">
<path d="M11.5501 20.3C9.81947 20.3 8.12774 19.7868 6.68881 18.8253C5.24988 17.8639 4.12837 16.4973 3.46611 14.8985C2.80384 13.2996 2.63056 11.5403 2.96818 9.84295C3.3058 8.14562 4.13916 6.58652 5.36287 5.36281C6.58658 4.1391 8.14568 3.30574 9.84301 2.96812C11.5403 2.6305 13.2997 2.80378 14.8985 3.46605C16.4974 4.12831 17.8639 5.24982 18.8254 6.68875C19.7869 8.12768 20.3001 9.81941 20.3001 11.55H16.8001C16.8001 10.5116 16.4921 9.49661 15.9153 8.63325C15.3384 7.76989 14.5185 7.09698 13.5591 6.69962C12.5998 6.30226 11.5442 6.1983 10.5258 6.40087C9.50743 6.60344 8.57197 7.10346 7.83774 7.83768C7.10352 8.57191 6.6035 9.50737 6.40093 10.5258C6.19836 11.5442 6.30233 12.5998 6.69969 13.5591C7.09704 14.5184 7.76995 15.3383 8.63331 15.9152C9.49667 16.4921 10.5117 16.8 11.5501 16.8V20.3ZM43.05 20.3V16.8C44.0884 16.8 45.1034 16.4921 45.9668 15.9152C46.8302 15.3383 47.5031 14.5184 47.9004 13.5591C48.2978 12.5998 48.4017 11.5442 48.1992 10.5258C47.9966 9.50737 47.4966 8.57191 46.7624 7.83768C46.0281 7.10346 45.0927 6.60344 44.0743 6.40087C43.0559 6.1983 42.0003 6.30226 41.041 6.69962C40.0816 7.09698 39.2617 7.76989 38.6848 8.63325C38.108 9.49661 37.8 10.5116 37.8 11.55H34.3001C34.3001 9.81941 34.8132 8.12768 35.7747 6.68875C36.7362 5.24982 38.1027 4.12831 39.7016 3.46605C41.3004 2.80378 43.0598 2.6305 44.7571 2.96812C46.4544 3.30574 48.0135 4.1391 49.2372 5.36281C50.4609 6.58652 51.2943 8.14562 51.6319 9.84295C51.9695 11.5403 51.7963 13.2996 51.134 14.8985C50.4717 16.4973 49.3502 17.8639 47.9113 18.8253C46.4724 19.7868 44.7806 20.3 43.05 20.3ZM11.5501 51.8C9.22941 51.8 7.00381 50.8781 5.36287 49.2372C3.72193 47.5962 2.80005 45.3706 2.80005 43.05C2.80005 40.7294 3.72193 38.5038 5.36287 36.8628C7.00381 35.2219 9.22941 34.3 11.5501 34.3V37.8C10.5117 37.8 9.49667 38.1079 8.63331 38.6848C7.76995 39.2617 7.09704 40.0816 6.69969 41.0409C6.30233 42.0002 6.19836 43.0558 6.40093 44.0742C6.6035 45.0926 7.10352 46.0281 7.83774 46.7623C8.57197 47.4965 9.50743 47.9965 10.5258 48.1991C11.5442 48.4017 12.5998 48.2977 13.5591 47.9004C14.5185 47.503 15.3384 46.8301 15.9153 45.9667C16.4921 45.1034 16.8001 44.0883 16.8001 43.05H20.3001C20.2977 45.3699 19.3751 47.5942 17.7347 49.2346C16.0942 50.8751 13.87 51.7977 11.5501 51.8ZM43.05 51.8C40.7301 51.7977 38.5059 50.8751 36.8654 49.2346C35.225 47.5942 34.3024 45.3699 34.3001 43.05H37.8C37.8 44.0883 38.108 45.1034 38.6848 45.9667C39.2617 46.8301 40.0816 47.503 41.041 47.9004C42.0003 48.2977 43.0559 48.4017 44.0743 48.1991C45.0927 47.9965 46.0281 47.4965 46.7624 46.7623C47.4966 46.0281 47.9966 45.0926 48.1992 44.0742C48.4017 43.0558 48.2978 42.0002 47.9004 41.0409C47.5031 40.0816 46.8302 39.2617 45.9668 38.6848C45.1034 38.1079 44.0884 37.8 43.05 37.8V34.3C45.3707 34.3 47.5963 35.2219 49.2372 36.8628C50.8782 38.5038 51.8 40.7294 51.8 43.05C51.8 45.3706 50.8782 47.5962 49.2372 49.2372C47.5963 50.8781 45.3707 51.8 43.05 51.8Z" fill="#A641B7"/>
<path d="M35.6848 31.8337V22.7882L45.666 12.8069C45.8331 12.6456 45.9663 12.4526 46.058 12.2392C46.1496 12.0258 46.1979 11.7964 46.1999 11.5641C46.2019 11.3319 46.1576 11.1016 46.0697 10.8867C45.9818 10.6717 45.8519 10.4765 45.6877 10.3122C45.5235 10.148 45.3282 10.0182 45.1133 9.93023C44.8983 9.84229 44.668 9.79804 44.4358 9.80005C44.2036 9.80207 43.9741 9.85032 43.7607 9.94198C43.5473 10.0336 43.3543 10.1669 43.193 10.3339L35.3228 18.2042C34.8823 16.789 34.0009 15.5517 32.8072 14.6731C31.6136 13.7945 30.1703 13.3206 28.6881 13.3206C27.206 13.3206 25.7627 13.7945 24.5691 14.6731C23.3754 15.5517 22.494 16.789 22.0535 18.2042L14.185 10.3339C13.857 10.006 13.4123 9.82185 12.9485 9.82185C12.4848 9.82185 12.04 10.006 11.712 10.3339C11.3841 10.6619 11.2 11.1067 11.2 11.5704C11.2 12.0342 11.3841 12.479 11.712 12.8069L21.6932 22.7882V31.8337L11.712 41.8149C11.3841 42.1429 11.2 42.5877 11.2 43.0514C11.2 43.5152 11.3841 43.96 11.712 44.2879C12.04 44.6158 12.4848 44.8 12.9485 44.8C13.4123 44.8 13.857 44.6158 14.185 44.2879L22.0553 36.4177C22.4957 37.8328 23.3772 39.0701 24.5708 39.9487C25.7645 40.8273 27.2078 41.3012 28.6899 41.3012C30.172 41.3012 31.6153 40.8273 32.809 39.9487C34.0026 39.0701 34.884 37.8328 35.3245 36.4177L43.1948 44.2879C43.5246 44.6065 43.9664 44.7828 44.425 44.7788C44.8835 44.7748 45.3222 44.5909 45.6465 44.2666C45.9707 43.9424 46.1547 43.5037 46.1586 43.0451C46.1626 42.5866 45.9864 42.1448 45.6678 41.8149L35.6848 31.8337ZM32.1869 34.3067C32.1869 35.2344 31.8184 36.1241 31.1624 36.7801C30.5064 37.4361 29.6167 37.8046 28.689 37.8046C27.7613 37.8046 26.8716 37.4361 26.2156 36.7801C25.5597 36.1241 25.1911 35.2344 25.1911 34.3067V20.3151C25.1911 19.3874 25.5597 18.4977 26.2156 17.8418C26.8716 17.1858 27.7613 16.8173 28.689 16.8173C29.6167 16.8173 30.5064 17.1858 31.1624 17.8418C31.8184 18.4977 32.1869 19.3874 32.1869 20.3151V34.3067Z" fill="#A641B7"/>
</svg>
