<svg width="56" height="56" viewBox="0 0 56 56" fill="none" xmlns="http://www.w3.org/2000/svg">
<path d="M52.5 49C52.5 49 56 49 56 45.5C56 42 52.5 31.5 38.5 31.5C24.5 31.5 21 42 21 45.5C21 49 24.5 49 24.5 49H52.5ZM24.577 45.5C24.5511 45.4964 24.5255 45.4918 24.5 45.486C24.5035 44.562 25.0845 41.881 27.16 39.466C29.092 37.2015 32.487 35 38.5 35C44.5095 35 47.9045 37.205 49.84 39.466C51.9155 41.881 52.493 44.5655 52.5 45.486L52.472 45.493C52.4557 45.4958 52.4394 45.4981 52.423 45.5H24.577ZM38.5 24.5C40.3565 24.5 42.137 23.7625 43.4497 22.4497C44.7625 21.137 45.5 19.3565 45.5 17.5C45.5 15.6435 44.7625 13.863 43.4497 12.5503C42.137 11.2375 40.3565 10.5 38.5 10.5C36.6435 10.5 34.863 11.2375 33.5503 12.5503C32.2375 13.863 31.5 15.6435 31.5 17.5C31.5 19.3565 32.2375 21.137 33.5503 22.4497C34.863 23.7625 36.6435 24.5 38.5 24.5ZM49 17.5C49 18.8789 48.7284 20.2443 48.2007 21.5182C47.6731 22.7921 46.8996 23.9496 45.9246 24.9246C44.9496 25.8996 43.7921 26.6731 42.5182 27.2007C41.2443 27.7284 39.8789 28 38.5 28C37.1211 28 35.7557 27.7284 34.4818 27.2007C33.2079 26.6731 32.0504 25.8996 31.0754 24.9246C30.1004 23.9496 29.3269 22.7921 28.7993 21.5182C28.2716 20.2443 28 18.8789 28 17.5C28 14.7152 29.1062 12.0445 31.0754 10.0754C33.0445 8.10625 35.7152 7 38.5 7C41.2848 7 43.9555 8.10625 45.9246 10.0754C47.8938 12.0445 49 14.7152 49 17.5ZM24.276 32.48C22.8759 32.0391 21.4327 31.7493 19.971 31.6155C19.1497 31.5374 18.325 31.4989 17.5 31.5C3.5 31.5 0 42 0 45.5C0 47.8345 1.1655 49 3.5 49H18.256C17.7371 47.9074 17.4784 46.7094 17.5 45.5C17.5 41.965 18.8195 38.353 21.315 35.336C22.1655 34.307 23.156 33.3445 24.276 32.48ZM17.22 35C15.1485 38.1125 14.0295 41.7614 14 45.5H3.5C3.5 44.59 4.074 41.895 6.16 39.466C8.0675 37.24 11.382 35.07 17.22 35.0035V35ZM5.25 19.25C5.25 16.4652 6.35625 13.7945 8.32538 11.8254C10.2945 9.85625 12.9652 8.75 15.75 8.75C18.5348 8.75 21.2055 9.85625 23.1746 11.8254C25.1438 13.7945 26.25 16.4652 26.25 19.25C26.25 22.0348 25.1438 24.7055 23.1746 26.6746C21.2055 28.6438 18.5348 29.75 15.75 29.75C12.9652 29.75 10.2945 28.6438 8.32538 26.6746C6.35625 24.7055 5.25 22.0348 5.25 19.25ZM15.75 12.25C13.8935 12.25 12.113 12.9875 10.8003 14.3003C9.4875 15.613 8.75 17.3935 8.75 19.25C8.75 21.1065 9.4875 22.887 10.8003 24.1997C12.113 25.5125 13.8935 26.25 15.75 26.25C17.6065 26.25 19.387 25.5125 20.6997 24.1997C22.0125 22.887 22.75 21.1065 22.75 19.25C22.75 17.3935 22.0125 15.613 20.6997 14.3003C19.387 12.9875 17.6065 12.25 15.75 12.25Z" fill="#A641B7"/>
</svg>
