<svg width="40" height="40" viewBox="0 0 40 40" fill="none" xmlns="http://www.w3.org/2000/svg">
<circle cx="20" cy="20" r="19" stroke="#A641B7" stroke-width="2"/>
<path fill-rule="evenodd" clip-rule="evenodd" d="M29.5413 14.8126C29.6796 14.3446 29.5413 14 28.8788 14H26.6913C26.1347 14 25.878 14.2974 25.7388 14.6257C25.7388 14.6257 24.6264 17.3651 23.0506 19.1446C22.5406 19.6606 22.3089 19.8243 22.0306 19.8243C21.8914 19.8243 21.6823 19.6606 21.6823 19.1917V14.8126C21.6823 14.2503 21.5289 14 21.0656 14H17.6257C17.2782 14 17.069 14.2606 17.069 14.5083C17.069 15.0406 17.8573 15.164 17.9382 16.6623V19.9177C17.9382 20.6317 17.8107 20.7611 17.5323 20.7611C16.7907 20.7611 14.9866 18.0089 13.9158 14.8597C13.7083 14.2469 13.4983 14 12.9391 14H10.75C10.125 14 10 14.2974 10 14.6257C10 15.2103 10.7417 18.1143 13.4541 21.9551C15.2624 24.578 17.8082 26 20.1273 26C21.5181 26 21.6898 25.6846 21.6898 25.1403V23.1577C21.6898 22.526 21.8214 22.4 22.2622 22.4C22.5872 22.4 23.1431 22.5646 24.4414 23.8289C25.9247 25.328 26.1688 26 27.0038 26H29.1913C29.8163 26 30.1296 25.6846 29.9496 25.0606C29.7513 24.44 29.0429 23.5391 28.1038 22.4703C27.5938 21.8617 26.8288 21.206 26.5963 20.8777C26.2722 20.4569 26.3647 20.2691 26.5963 19.8946C26.5963 19.8946 29.2629 16.1009 29.5404 14.8126H29.5413Z" fill="#B2B2B2"/>
</svg>
