<svg width="351" height="703" viewBox="0 0 351 703" fill="none" xmlns="http://www.w3.org/2000/svg">
<g clip-path="url(#clip0_167_1328)">
<path d="M702 139.301C702 207.875 655.737 265.29 590.739 279.406C553.557 287.513 518.573 281.599 485.883 261.952C484.927 261.38 484.162 260.617 483.207 262.143C470.303 281.313 458.641 301.151 450.612 322.896C447.553 331.194 445.164 339.682 444.495 348.552C443.826 357.04 445.833 365.147 448.318 373.158C454.722 393.855 465.141 412.643 476.611 430.764C478.619 434.007 480.817 437.154 482.824 440.302C483.589 441.637 484.258 441.828 485.692 440.969C501.75 431.05 519.242 424.565 537.881 421.799C576.688 416.172 612.341 424.47 643.98 447.55C675.427 470.535 694.258 501.722 700.279 540.158C711.367 611.307 666.538 681.789 593.129 698.956C516.661 716.886 441.723 671.488 422.415 595.57C412.569 556.753 419.069 520.13 440.002 486.081C441.149 484.269 441.054 483.411 439.238 482.266C420.79 470.154 401.768 458.995 380.931 451.174C372.042 447.836 362.865 445.07 353.307 444.594C343.844 444.021 334.955 446.501 326.065 449.458C302.838 457.183 281.905 469.486 261.641 482.934C260.207 483.888 260.877 484.46 261.45 485.414C271.964 501.913 278.846 519.748 281.81 539.109C287.449 575.351 280.376 609.114 259.921 639.633C236.694 674.159 204.195 695.141 162.998 701.34C88.2506 712.69 20.1943 664.621 3.75373 594.235C-14.025 517.745 33.0026 441.828 109.853 423.993C147.226 415.314 182.688 421.132 215.761 440.779C217.577 441.923 218.437 441.828 219.68 439.92C232.106 421.131 243.576 401.866 251.414 380.693C254.568 372.205 257.053 363.621 257.722 354.56C258.391 346.072 256.384 337.965 253.899 329.954C247.495 309.258 237.076 290.469 225.606 272.348C223.694 269.296 221.591 266.435 219.775 263.383C218.915 262.048 218.341 261.666 216.812 262.62C199.989 273.111 181.637 279.787 161.946 282.267C121.514 287.322 84.8096 277.689 52.9798 252.224C24.5912 229.43 7.29036 199.673 1.84203 163.717C-9.62813 89.0392 39.1201 18.1764 114.25 3.48877C188.997 -11.1034 261.737 34.8668 279.802 108.686C289.265 147.217 282.861 183.555 262.215 217.317C261.068 219.129 261.354 219.797 263.075 220.941C281.523 233.054 300.449 244.117 321.191 251.843C330.08 255.181 339.065 257.851 348.528 258.423C358.373 258.996 367.74 256.421 376.916 253.273C397.945 246.12 417.158 235.152 435.701 223.135C437.613 221.895 440.48 220.846 441.054 219.129C441.627 217.413 439.142 215.314 437.995 213.407C422.51 186.798 416.011 158.09 418.974 127.475C424.709 69.4876 465.523 21.2283 521.632 5.39625C600.107 -16.6351 680.302 30.8611 698.655 110.212C700.853 120.703 702 131.195 702 139.301ZM620.753 623.515C620.657 623.42 620.562 623.229 620.466 623.134C620.753 622.752 621.04 622.371 621.326 621.989C634.995 607.302 642.642 589.943 644.267 570.01C645.605 553.606 642.068 538.06 634.039 523.659C625.819 508.876 614.062 497.526 598.96 489.896C597.622 489.229 596.952 489.228 596.57 490.945C593.416 504.679 588.923 517.841 583.475 530.812C582.041 534.245 582.041 534.245 585.004 536.439C596.188 544.736 600.68 555.704 597.526 569.343C595.327 578.88 588.923 585.747 581.372 591.565C574.108 597.192 565.792 599.004 556.807 597.764C554.799 597.478 554.704 598.146 554.608 599.672C553.939 607.874 553.557 616.267 551.932 624.373C548.682 640.015 542.374 654.607 535.969 669.104C535.205 670.916 534.058 672.633 532.528 674.063C531.477 675.017 530.139 675.494 528.992 674.731C525.742 672.728 522.396 670.821 520.867 667.006C520.485 666.052 519.911 665.48 518.955 665.098C506.051 659.662 494.581 652.223 484.545 642.495C464.568 622.943 453.384 599.099 451.377 571.346C449.656 547.788 455.391 525.852 468.104 505.824C468.869 504.584 468.773 503.916 467.626 503.058C463.038 499.72 458.546 496.286 454.053 492.757C452.715 491.708 452.237 491.994 451.377 493.33C432.547 524.231 426.525 557.326 435.319 592.423C452.811 662.428 522.396 703.725 592.555 686.271C661.09 669.199 703.434 597.287 684.89 529.286C670.457 476.353 626.775 439.539 571.622 434.198C543.712 431.527 517.713 437.727 493.53 451.937C492 452.891 492 453.463 492.956 454.798C503.757 469.295 515.514 483.029 527.749 496.382C538.359 507.922 550.976 516.601 564.645 524.04C565.027 524.231 565.314 524.517 565.792 524.231C566.461 516.887 566.843 509.543 568.086 502.199C570.953 485.414 577.835 470.058 584.622 454.608C585.387 452.796 586.438 451.174 587.872 449.839C588.923 448.885 590.166 448.218 591.408 448.981C595.71 451.365 599.629 454.226 600.68 459.567C601.827 465.862 600.393 471.966 599.342 478.165C599.151 479.596 599.342 480.168 600.585 480.74C606.033 483.506 611.099 486.94 615.878 490.754C643.215 512.69 655.068 549.696 645.509 583.363C640.921 598.909 632.797 612.356 620.753 623.515ZM637.48 103.631C636.716 102.392 635.951 101.152 635.186 99.9119C625.532 83.889 612.15 72.1581 594.85 64.9096C577.931 57.7566 560.439 56.4213 542.565 60.7132C528.036 64.242 515.419 71.2043 504.618 81.6001C503.757 82.4584 502.993 83.0307 504.618 83.9844C517.521 91.9958 529.374 101.247 540.557 111.548C541.513 112.406 542.087 112.501 543.138 111.643C551.263 105.062 560.63 103.631 570.284 106.493C583.379 110.498 592.269 119.559 596.857 132.339C599.724 140.446 599.055 148.743 594.563 156.278C593.129 158.758 593.894 159.33 595.997 159.997C617.981 167.818 635.473 182.315 652.2 197.766C654.112 199.482 655.928 201.39 657.171 203.774C657.935 205.205 658.413 206.826 656.98 207.971C654.016 210.546 650.958 213.025 646.752 213.121C645.892 213.121 645.223 213.407 644.649 214.075C639.774 219.606 634.326 224.661 628.304 229.048C608.996 243.354 587.298 250.603 563.402 250.984C542.565 251.27 523.257 245.929 505.382 235.248C504.044 234.485 503.471 234.675 502.706 235.82C499.552 240.016 496.397 244.308 493.052 248.409C491.809 249.935 492 250.603 493.721 251.557C522.683 268.533 553.653 273.969 586.438 267.102C658.509 251.938 702.765 181.266 684.89 110.117C667.972 42.5921 599.246 -0.230804 529.565 17.0319C459.884 34.2946 418.783 101.915 434.841 171.538C437.995 185.367 443.635 198.338 451.186 210.26C451.664 211.023 451.855 212.167 453.289 211.023C458.068 207.303 462.943 203.583 467.817 199.959C468.869 199.196 468.678 198.529 468.104 197.575C463.707 190.422 460.457 182.697 457.972 174.78C456.538 170.298 455.487 165.625 454.914 160.951C455.009 162.096 455.487 163.049 455.774 164.194C458.737 175.448 462.943 186.225 469.251 196.049C470.207 197.479 470.685 197.766 472.119 196.526C478.523 191.185 484.832 185.844 490.949 180.217C499.647 172.205 508.25 164.003 514.75 153.894C520.293 145.31 525.073 136.249 530.425 127.57C531.286 126.235 530.521 125.949 529.565 125.472C523.161 122.611 516.661 119.75 510.257 116.698C492.861 108.4 479.096 95.3339 465.237 82.4584C464.09 81.3139 463.134 79.9787 462.56 78.4527C462.082 77.3082 461.987 76.1637 462.943 75.3054C466.957 71.7766 471.163 68.9153 476.994 70.1552C482.92 71.3951 487.986 74.447 493.243 77.2129C494.486 77.8805 495.25 78.0712 496.302 76.9267C500.699 72.4442 505.765 68.7246 511.213 65.5772C533.867 52.3203 558.049 48.7914 583.284 56.326C608.327 63.7651 626.584 79.5972 637.863 103.25C637.767 103.345 637.576 103.441 637.48 103.631ZM229.907 621.512C244.914 598.241 250.362 572.872 245.774 545.499C243.576 532.242 238.701 519.939 231.723 508.494C230.672 506.873 230.098 506.3 228.378 507.922C226.084 510.115 223.599 512.023 221.113 514.026C202.188 529.381 186.225 547.311 175.328 569.343C172.747 574.588 169.593 579.548 166.057 584.221C162.711 588.608 158.983 592.614 153.917 594.903C151.719 595.857 151.337 596.81 152.292 599.004C161.373 620.177 163.093 642.59 163.189 665.289C163.189 668.341 163.093 671.488 162.233 674.445C161.755 676.162 160.991 677.783 158.792 677.592C152.77 677.115 147.513 675.112 144.741 669.104C143.212 665.861 142.16 662.523 141.205 658.994C140.631 656.896 140.631 654.226 139.388 652.795C137.955 651.174 135.087 652.032 132.889 651.746C113.676 649.075 96.4709 641.732 82.6111 628.093C56.1341 602.247 48.3918 571.25 58.9061 535.866C60.0531 532.051 61.5825 528.236 63.7809 524.612C63.8765 524.994 63.9721 525.089 63.8765 525.089C63.4942 525.947 63.1118 526.901 62.7295 527.76C54.8915 547.597 54.318 567.721 61.5825 587.654C69.9939 610.83 85.7654 627.235 108.61 636.867C117.213 640.492 126.293 642.399 135.565 642.971C136.616 643.067 137.477 643.067 137.094 641.541C134.322 627.425 133.175 613.119 132.984 598.718C132.984 597.669 132.697 597.096 131.646 596.81C121.323 593.758 113.963 586.891 108.419 578.117C100.008 564.955 102.588 548.742 114.345 538.441C119.22 534.15 124.86 530.812 130.595 527.664C132.22 526.806 132.315 526.043 131.742 524.421C129.161 516.982 126.293 509.543 124.477 501.722C120.941 485.986 120.941 469.963 120.941 454.035C120.941 451.937 121.132 449.839 121.992 447.836C122.566 446.501 123.426 445.356 125.051 445.547C128.779 446.024 132.506 446.501 135.469 449.171C136.521 450.125 137.572 450.411 138.91 450.411C147.035 450.221 154.969 451.079 162.902 452.7C175.233 455.275 186.798 459.853 197.504 466.53C198.747 467.293 199.32 467.293 200.18 466.053C202.952 462.238 205.82 458.423 208.783 454.798C210.217 453.082 209.93 452.414 208.018 451.27C177.144 433.339 144.359 428.666 109.757 437.25C42.6567 453.749 0.217099 523.277 16.2753 590.325C32.238 656.419 93.8901 698.384 161.086 688.465C193.585 683.696 220.444 668.436 241.282 643.067C264.509 614.836 273.972 582.218 269.766 545.881C267.568 526.71 261.068 509.066 250.84 492.757C250.076 491.517 249.598 491.422 248.546 492.28C244.34 495.619 240.039 498.861 235.738 502.009C234.591 502.867 234.782 503.439 235.355 504.584C248.833 527.76 253.23 552.557 248.642 578.88C246.061 593.854 240.326 607.588 231.628 620.082C231.15 620.654 231.15 621.894 229.907 621.512ZM226.37 77.4036C220.731 70.4413 214.422 64.1466 207.158 58.8057C182.879 41.1615 155.829 34.1038 126.293 39.4448C90.5446 45.9302 64.7368 66.1495 49.1565 99.0535C47.7227 102.105 46.7668 105.348 45.5242 108.496C49.5388 108.782 53.2666 109.068 56.9944 109.449C74.6776 111.357 91.8828 115.362 108.706 121.085C110.331 121.657 111.191 121.18 112.147 120.036C115.397 116.125 119.124 112.692 123.426 110.022C135.469 102.487 150.667 103.727 160.704 112.978C164.049 116.03 166.63 119.654 169.115 123.374C173.225 129.669 176.762 136.345 180.49 142.926C181.35 144.452 182.306 145.024 184.122 145.024C193.107 145.119 202.092 144.928 210.886 146.741C224.172 149.411 237.076 153.512 249.884 158.09C251.987 158.853 254.09 159.807 255.906 161.237C257.149 162.286 258.105 163.526 257.34 165.243C254.568 171.442 250.267 175.448 243.098 175.639C238.319 175.83 233.539 175.448 228.76 174.971C227.422 174.876 226.753 175.162 226.275 176.497C224.937 180.026 223.121 183.269 221.209 186.416C220.349 187.847 220.635 188.514 221.782 189.563C230.289 196.716 239.083 203.583 247.973 210.355C249.884 211.786 250.649 211.786 251.892 209.687C269.001 180.98 274.832 150.365 268.523 117.556C254.95 47.8377 186.416 2.34428 116.544 16.3643C49.0609 29.812 4.32723 93.6172 14.6504 161.428C19.5252 193.569 34.7232 220.274 59.7664 240.875C87.5815 263.86 119.889 273.206 155.829 269.773C174.946 267.961 192.725 261.762 209.165 251.843C210.312 251.175 210.79 250.698 209.739 249.363C202.57 239.73 195.019 230.288 187.181 221.228C186.225 220.083 185.556 219.988 184.218 220.655C166.439 229.525 147.704 232.291 128.109 228.762C112.338 225.901 98.3826 219.129 86.2433 208.638C85.5742 208.066 84.5228 207.589 84.236 205.872C88.7285 209.592 93.0298 212.644 97.6179 215.219C115.014 224.947 133.653 228.285 153.344 225.233C162.711 223.803 171.6 220.655 179.916 216.077C180.681 215.601 182.115 215.41 180.681 213.979C174.181 207.208 167.968 200.055 160.513 194.141C150.667 186.511 139.675 180.694 128.874 174.494C123.808 171.633 118.838 168.486 114.345 164.671C107.272 158.567 103.449 151.032 103.64 141.686C103.64 139.683 103.066 139.301 101.25 139.301C93.3166 139.111 85.2875 139.397 77.354 138.252C62.3472 136.059 48.105 131.099 33.7673 126.235C31.6645 125.472 29.5616 124.518 27.8411 122.992C26.7896 122.039 25.8338 120.894 26.5029 119.368C28.2234 115.839 30.0395 112.311 33.7673 110.498C34.7232 110.022 35.2011 109.354 35.5834 108.4C43.039 86.4641 56.0386 68.4385 74.7732 54.8954C98.3826 37.728 124.955 30.7657 154.013 34.4853C178.005 37.5373 198.747 47.7423 216.047 64.6235C219.966 68.4385 223.885 72.4442 226.753 77.2129C226.657 77.2129 226.466 77.3082 226.37 77.4036ZM470.685 505.537C463.421 517.936 458.737 531.002 456.634 545.022C454.34 560.759 455.487 576.21 460.457 591.183C470.303 620.463 489.324 641.636 517.713 654.321C519.146 654.988 519.624 654.893 519.816 653.176C520.963 643.639 522.97 634.292 525.455 625.041C528.8 612.833 533.006 600.911 538.072 589.371C538.455 588.513 539.124 587.845 538.168 586.796C532.528 580.311 528.227 572.871 524.404 565.337C512.073 540.54 492 522.705 470.685 505.537ZM350.917 423.993C391.732 423.802 422.032 391.566 423.657 354.847C425.473 313.74 392.688 279.215 351.204 279.215C310.485 279.215 280.185 311.451 278.464 348.075C276.552 389.372 309.434 423.802 350.917 423.993ZM635.377 210.45C635.186 210.26 635.186 210.164 635.091 210.164C614.922 200.055 596.666 187.179 580.129 171.919C579.174 171.061 578.505 171.252 577.644 171.824C573.821 174.113 569.902 176.306 566.079 178.5C556.711 183.841 547.153 189.087 539.028 196.24C527.367 206.54 517.235 218.366 507.294 230.288C505.956 231.909 507.581 232.005 508.345 232.386C530.712 244.308 554.322 247.932 579.174 242.877C601.254 238.3 619.988 227.427 635.377 210.45ZM150.572 515.933C154.682 513.453 158.314 510.974 161.755 508.113C173.703 497.908 183.74 485.986 193.872 474.159C194.923 472.92 193.776 472.729 193.107 472.347C184.6 467.674 175.615 464.336 166.152 462.238C158.123 460.426 149.998 459.663 141.587 459.853C146.94 478.165 149.712 496.668 150.572 515.933ZM528.131 548.551C528.323 546.548 527.08 545.213 526.315 543.782C515.419 524.422 500.507 508.494 483.876 494.093C480.817 491.517 480.817 491.613 478.236 494.76C477.089 496.191 477.089 496.858 478.619 498.098C496.875 512.977 513.889 529.286 528.131 548.551ZM548.204 175.543C548.109 175.353 548.013 175.162 547.917 174.971C546.484 175.734 544.954 176.497 543.521 177.26C524.69 187.942 509.014 202.344 494.868 218.462C492.192 221.514 492.287 221.514 495.441 224.089C496.78 225.233 497.449 225.424 498.787 223.898C509.492 210.832 521.058 198.529 533.771 187.37C538.359 183.173 543.234 179.358 548.204 175.543ZM153.535 527.855C154.491 528.332 155.16 527.76 155.829 527.378C158.505 525.852 161.277 524.422 163.858 522.8C180.012 512.691 193.776 500.006 206.393 485.795C209.356 482.457 209.834 483.506 205.724 480.263C204.386 479.214 203.717 479.214 202.474 480.645C187.85 498.098 171.983 514.312 153.535 527.855ZM243.958 220.846C243.385 220.369 242.907 219.988 242.333 219.606C233.539 213.121 224.746 206.54 216.43 199.292C213.753 196.907 213.849 197.098 211.459 199.482C209.739 201.199 210.312 202.057 211.746 203.393C219.966 210.927 228.665 217.794 237.841 224.184C238.51 224.661 239.274 226.092 240.23 225.138C241.664 223.898 242.715 222.372 243.958 220.846ZM470.685 251.461C464.09 259.473 446.024 296.955 444.399 306.397C445.164 305.157 445.642 304.489 446.024 303.821C454.34 288.752 463.038 273.969 472.406 259.568C475.464 254.799 475.464 254.799 470.685 251.461ZM257.34 397.383C257.149 397.669 256.958 397.765 256.958 397.86C247.59 414.551 238.127 431.146 227.422 447.073C226.848 447.932 227.04 448.313 227.709 448.79C228.378 449.267 229.142 449.648 229.62 450.316C231.054 451.937 231.914 451.46 232.966 449.744C242.62 433.721 250.936 417.126 257.149 399.482C257.34 398.909 257.722 398.337 257.34 397.383ZM396.702 444.88C397.18 445.166 397.563 445.452 397.945 445.643C413.717 454.226 429.201 463.287 444.208 473.015C447.553 475.209 447.458 475.209 450.039 472.252C451.186 470.917 451.281 470.44 449.656 469.486C433.407 459.663 416.488 451.365 398.614 445.07C398.041 444.784 397.467 444.498 396.702 444.88ZM251.223 232.863C262.406 240.779 299.302 258.233 305.228 258.137C303.412 257.088 301.978 256.23 300.544 255.467C286.493 247.837 272.825 239.635 259.347 231.051C254.568 227.999 254.568 227.999 251.318 232.577C251.223 232.768 251.223 232.863 251.223 232.863ZM178.96 164.766C179.438 165.625 179.725 166.006 179.916 166.388C186.416 176.402 194.063 185.558 202.283 194.237C203.908 195.953 204.577 195.763 206.011 194.046C207.54 192.139 207.54 191.185 205.629 189.468C197.886 182.601 190.717 174.971 183.931 167.151C182.688 165.625 181.255 165.052 178.96 164.766ZM462.847 477.974C462.178 477.879 461.987 478.356 461.7 478.737C460.935 479.596 460.266 480.549 459.502 481.312C458.546 482.362 458.641 482.934 459.788 483.697C463.707 486.558 467.626 489.419 471.45 492.376C475.273 495.332 475.273 495.332 478.332 491.613C479.192 490.564 479.001 490.182 478.045 489.419C473.457 485.604 468.487 482.171 463.707 478.642C463.516 478.451 463.134 478.165 462.847 477.974ZM494.964 228.19C493.721 227.141 492.478 226.187 491.427 225.043C490.471 224.089 489.802 224.089 488.942 225.233C486.074 229.048 483.111 232.863 480.339 236.678C477.663 240.302 477.663 240.302 481.295 243.068C482.442 243.927 483.015 244.022 483.971 242.782C487.221 238.3 490.662 233.817 494.008 229.43C494.294 229.048 494.581 228.667 494.964 228.19ZM208.114 473.683C209.165 474.541 210.408 475.304 211.364 476.258C212.797 477.879 213.658 477.211 214.614 475.876C216.908 472.729 219.297 469.677 221.591 466.53C224.65 462.428 224.554 462.524 220.444 459.567C219.393 458.9 219.01 459.09 218.341 459.949C214.996 464.622 211.555 469.2 208.114 473.683ZM217.386 173.731C212.128 172.778 206.871 171.728 201.614 170.775C204.96 174.494 208.496 177.832 212.033 181.171C212.415 181.552 212.893 181.838 213.371 182.315C214.996 179.454 216.43 176.783 217.386 173.731Z" fill="#E5E5E5" fill-opacity="0.05"/>
<path d="M226.386 76.9321C227.111 77.6947 227.836 78.5845 228.561 79.3471H228.682C226.627 80.364 226.99 77.8218 226.023 77.3134C226.023 77.1863 226.265 77.0592 226.386 76.9321Z" fill="#E5E5E5" fill-opacity="0.05"/>
<path d="M228.682 80.074C228.777 79.5971 229.064 79.4064 229.446 79.7879C229.542 79.8832 229.637 80.1693 229.542 80.1693C229.255 80.6462 229.064 79.7878 228.682 80.074Z" fill="#E5E5E5" fill-opacity="0.05"/>
<path d="M228.916 82.2377C229.203 81.4798 228.056 80.1534 229.203 79.5849C229.107 79.5849 229.203 79.5849 229.203 79.5849C229.012 80.5323 229.967 81.8588 228.916 82.2377C228.916 82.2377 228.82 82.2377 228.916 82.2377Z" fill="#E5E5E5" fill-opacity="0.05"/>
<path d="M82.7184 204.268C82.9096 204.459 83.2919 204.649 83.0052 204.936C82.6228 205.317 82.5272 204.84 82.4316 204.554C82.5272 204.554 82.6228 204.459 82.7184 204.268Z" fill="#E5E5E5" fill-opacity="0.05"/>
<path d="M82.7184 204.268C82.9096 204.459 83.0051 204.554 83.1963 204.745C83.1007 204.84 83.0051 204.936 82.9096 205.126C82.6228 205.126 82.4316 204.936 82.4316 204.649C82.5272 204.459 82.6228 204.363 82.7184 204.268Z" fill="#E5E5E5" fill-opacity="0.05"/>
<path d="M82.4316 204.473C82.814 203.997 83.0051 204.473 83.1963 204.664C83.1007 204.76 83.0051 204.855 82.9095 204.95C82.6228 204.95 82.5272 204.76 82.4316 204.473C82.5272 204.378 82.4316 204.473 82.4316 204.473Z" fill="#E5E5E5" fill-opacity="0.05"/>
<path d="M83.0052 204.778C82.6228 204.778 82.5272 204.683 82.5272 204.301H82.4316C82.9096 204.206 83.1008 204.301 83.0052 204.778Z" fill="#E5E5E5" fill-opacity="0.05"/>
<path d="M82.4316 204.31C82.6228 204.31 82.814 204.406 83.0052 204.406C82.9096 204.501 82.9096 204.692 82.814 204.787H82.9096C82.6228 204.787 82.4316 204.596 82.4316 204.31C82.5272 204.215 82.4316 204.31 82.4316 204.31Z" fill="#E5E5E5" fill-opacity="0.05"/>
<path d="M82.814 204.745C82.7184 204.649 82.6228 204.459 82.4316 204.363C82.5272 204.363 82.6228 204.268 82.6228 204.268C83.0051 204.459 83.0051 204.649 82.814 204.745C82.814 204.84 82.814 204.745 82.814 204.745Z" fill="#E5E5E5" fill-opacity="0.05"/>
<path d="M79.8156 201.615L79.9115 201.711C79.8156 201.711 79.8156 201.615 79.8156 201.615C79.8156 201.615 79.7196 201.615 79.8156 201.615Z" fill="#E5E5E5" fill-opacity="0.05"/>
<path d="M79.7729 201.658C79.8705 201.561 79.8705 201.658 79.7729 201.658C79.7729 201.658 79.8705 201.658 79.7729 201.658Z" fill="#E5E5E5" fill-opacity="0.05"/>
<path d="M228.994 620.762C229.663 620.953 229.185 621.335 229.089 621.621C229.089 621.716 228.707 621.716 228.707 621.716C228.611 621.335 228.803 621.048 228.994 620.762C229.089 620.858 228.994 620.762 228.994 620.762Z" fill="#E5E5E5" fill-opacity="0.05"/>
<path d="M352.47 408.536C319.503 408.345 295.352 381.668 295.16 351.932C294.969 322.005 318.928 294.851 352.087 294.468C383.234 294.086 409.11 319.615 409.493 350.976C409.972 381.095 385.821 408.249 352.47 408.536ZM352.375 392.568C375.279 392.568 393.776 374.21 393.68 351.454C393.68 328.985 375.184 310.723 352.662 310.436C331.195 310.149 311.165 327.36 310.973 351.454C310.973 374.21 329.566 392.568 352.375 392.568Z" fill="#E5E5E5" fill-opacity="0.05"/>
<path d="M385.568 352.778C385.568 371.835 370.107 387.216 351.048 387.313C331.893 387.313 316.432 371.932 316.432 352.875C316.432 333.818 331.795 318.437 350.951 318.34C370.01 318.243 385.568 333.721 385.568 352.778ZM353.188 331.593C353.188 330.722 353.188 329.755 353.188 328.884C352.896 323.951 351.826 323.08 346.867 323.661C346.089 323.757 345.409 323.951 344.728 324.048C331.893 326.563 321.683 338.558 321.391 351.424C321.391 353.069 321.683 353.842 323.433 354.326C338.407 358.486 353.382 347.168 353.188 331.593ZM378.178 364.29C373.608 362.839 369.718 363.806 366.315 366.612C362.62 369.707 361.647 373.77 362.231 378.413C362.425 379.671 362.911 379.671 363.884 379.187C370.399 375.995 375.066 371.061 378.178 364.29ZM353.285 352.101C353.285 351.327 352.41 350.457 351.048 350.457C349.784 350.457 348.812 351.134 348.715 352.682C348.715 354.229 349.59 355.003 350.854 355.1C352.215 355.1 353.188 354.326 353.285 352.101Z" fill="#E5E5E5" fill-opacity="0.05"/>
</g>
<defs>
<clipPath id="clip0_167_1328">
<rect width="702" height="703" fill="white"/>
</clipPath>
</defs>
</svg>
