<svg width="100" height="100" viewBox="0 0 100 100" fill="none" xmlns="http://www.w3.org/2000/svg">
<g clip-path="url(#clip0_167_1395)">
<path d="M0.5 50C0.5 22.6446 22.6446 0.5 50 0.5C77.3554 0.5 99.5 22.6446 99.5 50C99.5 77.3554 77.3554 99.5 50 99.5C22.6446 99.5 0.5 77.3554 0.5 50ZM4.76316 50C4.76316 75.013 24.987 95.2368 50 95.2368C75.013 95.2368 95.2368 75.013 95.2368 50C95.2368 24.987 75.013 4.76316 50 4.76316C24.987 4.76316 4.76316 24.987 4.76316 50ZM75.1579 50C75.1579 51.1712 74.1975 52.1316 73.0263 52.1316H43.5526C42.3814 52.1316 41.4211 51.1712 41.4211 50C41.4211 48.8288 42.3814 47.8684 43.5526 47.8684H73.0263C74.1975 47.8684 75.1579 48.8288 75.1579 50ZM75.1579 65.7895C75.1579 66.9607 74.1975 67.9211 73.0263 67.9211H43.5526C42.3814 67.9211 41.4211 66.9607 41.4211 65.7895C41.4211 64.6182 42.3814 63.6579 43.5526 63.6579H73.0263C74.1975 63.6579 75.1579 64.6183 75.1579 65.7895ZM34.1053 50C34.1053 51.1712 33.1449 52.1316 31.9737 52.1316H26.9737C25.8025 52.1316 24.8421 51.1712 24.8421 50C24.8421 48.8288 25.8025 47.8684 26.9737 47.8684H31.9737C33.1449 47.8684 34.1053 48.8288 34.1053 50ZM34.1053 65.7895C34.1053 66.9607 33.1449 67.9211 31.9737 67.9211H26.9737C25.8025 67.9211 24.8421 66.9607 24.8421 65.7895C24.8421 64.6182 25.8025 63.6579 26.9737 63.6579H31.9737C33.1449 63.6579 34.1053 64.6182 34.1053 65.7895ZM75.1579 34.2105C75.1579 35.3818 74.1975 36.3421 73.0263 36.3421H43.5526C42.3814 36.3421 41.4211 35.3818 41.4211 34.2105C41.4211 33.0393 42.3814 32.0789 43.5526 32.0789H73.0263C74.1975 32.0789 75.1579 33.0393 75.1579 34.2105ZM34.1053 34.2105C34.1053 35.3818 33.1449 36.3421 31.9737 36.3421H26.9737C25.8025 36.3421 24.8421 35.3818 24.8421 34.2105C24.8421 33.0393 25.8025 32.0789 26.9737 32.0789H31.9737C33.1449 32.0789 34.1053 33.0393 34.1053 34.2105Z" fill="#A641B7" stroke="black"/>
</g>
<defs>
<clipPath id="clip0_167_1395">
<rect width="100" height="100" fill="white"/>
</clipPath>
</defs>
</svg>
