<svg width="100" height="100" viewBox="0 0 100 100" fill="none" xmlns="http://www.w3.org/2000/svg">
<circle cx="50" cy="50" r="49" stroke="#A641B7" stroke-width="2"/>
<path d="M28.5507 41.9488C28.4555 41.1259 27.7112 40.5359 26.8882 40.6311C26.0653 40.7264 25.4753 41.4707 25.5705 42.2936L28.5507 41.9488ZM29.6544 64.5421L28.1643 64.7145L28.1643 64.7147L29.6544 64.5421ZM35.2992 69.3939L35.2987 70.8939H35.2992V69.3939ZM64.2765 69.3939L64.2767 67.8939H64.2765V69.3939ZM69.9242 64.5421L71.4143 64.7147L71.4143 64.7143L69.9242 64.5421ZM74.0052 42.2934C74.1003 41.4705 73.5103 40.7262 72.6873 40.6311C71.8644 40.536 71.1202 41.1261 71.0251 41.949L74.0052 42.2934ZM21 39.1061C20.1716 39.1061 19.5 39.7776 19.5 40.6061C19.5 41.4345 20.1716 42.1061 21 42.1061V39.1061ZM78.5758 42.1061C79.4042 42.1061 80.0758 41.4345 80.0758 40.6061C80.0758 39.7776 79.4042 39.1061 78.5758 39.1061V42.1061ZM28.7493 41.4504C28.3788 42.1914 28.6791 43.0924 29.4201 43.4629C30.1611 43.8333 31.0621 43.533 31.4325 42.792L28.7493 41.4504ZM37.4932 30.6708C37.8636 29.9299 37.5633 29.0288 36.8223 28.6584C36.0814 28.2879 35.1804 28.5882 34.8099 29.3292L37.4932 30.6708ZM68.1432 42.792C68.5137 43.533 69.4147 43.8333 70.1557 43.4629C70.8966 43.0924 71.197 42.1914 70.8265 41.4504L68.1432 42.792ZM64.7659 29.3292C64.3954 28.5882 63.4944 28.2879 62.7534 28.6584C62.0125 29.0288 61.7121 29.9299 62.0826 30.6708L64.7659 29.3292ZM39.197 57.2727C39.197 58.1012 39.8685 58.7727 40.697 58.7727C41.5254 58.7727 42.197 58.1012 42.197 57.2727H39.197ZM42.197 51.2121C42.197 50.3837 41.5254 49.7121 40.697 49.7121C39.8685 49.7121 39.197 50.3837 39.197 51.2121H42.197ZM48.2879 57.2727C48.2879 58.1012 48.9595 58.7727 49.7879 58.7727C50.6163 58.7727 51.2879 58.1012 51.2879 57.2727H48.2879ZM51.2879 51.2121C51.2879 50.3837 50.6163 49.7121 49.7879 49.7121C48.9595 49.7121 48.2879 50.3837 48.2879 51.2121H51.2879ZM57.3788 57.2727C57.3788 58.1012 58.0504 58.7727 58.8788 58.7727C59.7072 58.7727 60.3788 58.1012 60.3788 57.2727H57.3788ZM60.3788 51.2121C60.3788 50.3837 59.7072 49.7121 58.8788 49.7121C58.0504 49.7121 57.3788 50.3837 57.3788 51.2121H60.3788ZM25.5705 42.2936L28.1643 64.7145L31.1444 64.3697L28.5507 41.9488L25.5705 42.2936ZM28.1643 64.7147C28.5772 68.2798 31.6916 70.8926 35.2987 70.8939L35.2998 67.8939C33.1185 67.8932 31.3711 66.3273 31.1444 64.3696L28.1643 64.7147ZM35.2992 70.8939H64.2765V67.8939H35.2992V70.8939ZM64.2763 70.8939C67.8848 70.8944 71.0012 68.2811 71.4143 64.7147L68.4342 64.3696C68.2074 66.3281 66.4588 67.8942 64.2767 67.8939L64.2763 70.8939ZM71.4143 64.7143L74.0052 42.2934L71.0251 41.949L68.4342 64.3699L71.4143 64.7143ZM21 42.1061H78.5758V39.1061H21V42.1061ZM31.4325 42.792L37.4932 30.6708L34.8099 29.3292L28.7493 41.4504L31.4325 42.792ZM70.8265 41.4504L64.7659 29.3292L62.0826 30.6708L68.1432 42.792L70.8265 41.4504ZM42.197 57.2727V51.2121H39.197V57.2727H42.197ZM51.2879 57.2727V51.2121H48.2879V57.2727H51.2879ZM60.3788 57.2727V51.2121H57.3788V57.2727H60.3788Z" fill="#B2B2B2"/>
</svg>
