<svg width="100" height="100" viewBox="0 0 100 100" fill="none" xmlns="http://www.w3.org/2000/svg">
<circle cx="50" cy="50" r="49" stroke="#A641B7" stroke-width="2"/>
<path d="M48.8095 48.8591C56.6581 48.8591 63.0208 42.4965 63.0208 34.6478C63.0208 26.7991 56.6581 20.4365 48.8095 20.4365C40.9608 20.4365 34.5981 26.7991 34.5981 34.6478C34.5981 42.4965 40.9608 48.8591 48.8095 48.8591Z" stroke="#B2B2B2" stroke-width="3" stroke-miterlimit="10"/>
<path d="M22.7678 74.8512L23.6855 69.7669C24.7696 63.895 27.8763 58.5884 32.466 54.7689C37.0557 50.9495 42.8384 48.8584 48.8095 48.8591C54.7877 48.8606 60.576 50.9586 65.1667 54.788C69.7574 58.6174 72.8597 63.9355 73.9335 69.8165L74.8512 74.9008" stroke="#B2B2B2" stroke-width="3" stroke-miterlimit="10"/>
</svg>
